<svg width="40" height="40" viewBox="0 0 40 40" fill="none" xmlns="http://www.w3.org/2000/svg">
<path fill-rule="evenodd" clip-rule="evenodd" d="M20 40C31.0457 40 40 31.0457 40 20C40 8.95431 31.0457 0 20 0C8.95431 0 0 8.95431 0 20C0 31.0457 8.95431 40 20 40ZM16.7894 27.622C17.5081 27.7247 18.2194 27.7907 18.9234 27.82V29.8H20.9694V27.776C22.5974 27.5853 23.7634 27.0793 24.4674 26.258C25.1861 25.422 25.5454 24.3953 25.5454 23.178C25.5454 22.386 25.4134 21.726 25.1494 21.198C24.9001 20.6553 24.5628 20.208 24.1374 19.856C23.7268 19.504 23.2574 19.218 22.7294 18.998C22.2014 18.778 21.6588 18.5873 21.1014 18.426V14.686C21.7028 14.7153 22.3041 14.796 22.9054 14.928C23.5068 15.0453 24.0421 15.2067 24.5114 15.412V12.53C24.0568 12.398 23.5508 12.288 22.9934 12.2C22.4361 12.0973 21.8128 12.0313 21.1234 12.002V10H19.1214V12.024C17.6254 12.156 16.4814 12.5667 15.6894 13.256C14.9121 13.9453 14.5234 14.9573 14.5234 16.292C14.5234 17.04 14.6554 17.6633 14.9194 18.162C15.1834 18.6607 15.5281 19.086 15.9534 19.438C16.3788 19.7753 16.8554 20.054 17.3834 20.274C17.9114 20.4793 18.4394 20.6627 18.9674 20.824V25.114C18.3221 25.0847 17.6034 24.9893 16.8114 24.828C16.0341 24.6667 15.3374 24.4247 14.7214 24.102V27.182C15.3961 27.3873 16.0854 27.534 16.7894 27.622ZM21.9374 22.254C22.2014 22.5767 22.3334 22.9507 22.3334 23.376C22.3334 23.728 22.2308 24.0507 22.0254 24.344C21.8201 24.6227 21.4608 24.8353 20.9474 24.982V21.44C21.3581 21.6453 21.6881 21.9167 21.9374 22.254ZM18.0214 17.15C17.7428 16.8567 17.6034 16.4973 17.6034 16.072C17.6034 15.6907 17.7281 15.3973 17.9774 15.192C18.2268 14.9867 18.6081 14.84 19.1214 14.752V17.854C18.6668 17.6633 18.3001 17.4287 18.0214 17.15Z" fill="#00E183"/>
</svg>
